# xmcd
# Track frame offsets:
# 150
# 10162
# 20768
# 32602
# 43353
# 53545
# 64666
# 75348
# 86295
# 97888
# 109436
# 120308
# 131306
# 143820
# 155060
#
# Disc length: 2239 seconds
# Revision: 1
# Processed by: cddbd v1.5.2PL0 Copyright (c) Steve Scherf et al.
# Submitted via: VisiTrax 2.11.3.279 - For more info visit www.synapsa.com
#
DISCID=b508bd0f
DTITLE=Various Artist - Malt Shop Memories: Jukebox Gems Disc 2
DYEAR=2006
DGENRE=Rock
TTITLE0=The Tymes - So Much In Love
TTITLE1=The Orlons - Don't Hang Up
TTITLE2=Chubby Checker - The Twist
TTITLE3=The Dovells - Bristol Stomp
TTITLE4=The Orlons - South Street
TTITLE5=Dee Dee Sharp - Ride!
TTITLE6=The Dovells - You Can't Sit Down
TTITLE7=Chubby Checker - Limbo Rock
TTITLE8=Dee Dee Sharp - Mashed Potato Time
TTITLE9=The Orlons - The Wah-Watusi
TTITLE10=Bobby Rydell - Wild One
TTITLE11=Charlie Gracie - Butterlfy
TTITLE12=The Rays - Silhouettes
TTITLE13=Bobby Rydell - Volare
TTITLE14=The Tymes - Wonderful! Wonderful!
EXTD=Time Life Music
EXTT0=
EXTT1=
EXTT2=
EXTT3=
EXTT4=
EXTT5=
EXTT6=
EXTT7=
EXTT8=
EXTT9=
EXTT10=
EXTT11=
EXTT12=
EXTT13=
EXTT14=
PLAYORDER=
